<svg width="40" height="35" viewBox="0 0 40 35" fill="none" xmlns="http://www.w3.org/2000/svg">
<mask id="mask0_11_816" style="mask-type:luminance" maskUnits="userSpaceOnUse" x="0" y="0" width="40" height="35">
<path d="M0.0670387 34.4429L15.557 20.5658C15.557 20.5658 15.6004 20.5224 15.6004 20.479L19.8525 0.108584C19.8525 0.108584 19.9176 0 20.0044 0C20.0911 0 20.1345 0.0434336 20.1562 0.108584L24.4301 20.479C24.4301 20.479 24.4518 20.5441 24.4735 20.5658L39.9634 34.4429C39.9634 34.4429 40.0285 34.5732 39.9851 34.6383C39.9417 34.7035 39.8766 34.7252 39.8115 34.7035L20.0478 28.2101C20.0478 28.2101 19.9827 28.2101 19.961 28.2101L0.197207 34.7035C0.197207 34.7035 0.0670398 34.7035 0.0236506 34.6383C-0.0197386 34.5732 0.00195653 34.508 0.0453457 34.4429" fill="white"/>
</mask>
<g mask="url(#mask0_11_816)">
<path d="M39.9854 0H0.00224304V34.7035H39.9854V0Z" fill="#E02A87"/>
</g>
</svg>
